<svg width="135" height="10" viewBox="0 0 135 10" fill="none" xmlns="http://www.w3.org/2000/svg">
<path id="Path" opacity="0.32" d="M36.4832 1.07999C39.9541 0.976001 43.3346 0.844716 46.8945 0.776464C50.4543 0.708212 54.0155 0.631513 57.7539 0.630516C60.4983 0.632244 62.7719 0.468512 65.6507 0.517514C75.5404 0.602077 86.1376 0.975758 97.2969 1.63343C99.781 1.78443 102.133 1.87548 104.594 2.02282C107.055 2.17016 109.518 2.30484 111.934 2.43642C113.461 2.50511 115.12 2.63796 116.617 2.74523C118.203 2.83459 119.836 2.94869 121.508 3.08694C124.923 3.41188 128.444 3.8244 132.007 4.31698C134.323 4.63609 134.489 5.07809 133.481 5.46823C132.4 5.95301 130.18 6.1765 127.182 6.10263C126.476 6.07743 125.792 6.06432 125.064 6.02702L122.862 5.89033L118.433 5.62173C115.545 5.48038 112.637 5.31849 109.683 5.14506C106.729 4.97162 103.928 4.88291 100.973 4.71792C98.0175 4.55294 95.1692 4.46114 92.1436 4.29363C90.3566 4.21007 88.6345 4.15709 86.9871 4.13498C85.2898 4.09561 83.5912 4.06468 81.9604 4.05317L72.4634 4.11185C65.5906 4.18355 58.4829 4.24404 52.0754 4.51499C47.9864 4.63796 44.1894 4.85914 40.3924 5.08032L32.2234 5.71733C29.6276 5.97291 26.987 6.21273 24.6866 6.54539C22.918 6.80645 21.3539 7.12151 19.8128 7.44024C18.2717 7.75896 16.9364 8.12326 15.2377 8.39106C14.463 8.50213 13.8709 8.65512 13.0962 8.7662C10.1927 9.17219 8.31475 9.07823 5.00176 8.48423C4.22759 8.35716 3.45828 8.21939 2.70099 8.07221C0.408927 7.60528 -0.383207 6.92999 0.502222 6.26931C1.21572 5.79787 1.88639 5.29799 2.89995 4.87407C3.9135 4.45015 5.38332 4.13313 6.73841 3.7936C8.0935 3.45408 10.0189 3.24818 11.763 2.99192C13.5072 2.73566 15.4537 2.54609 17.3567 2.33231C23.1854 1.75247 29.4339 1.29695 36.0751 0.967732L36.4832 1.07999Z" fill="white"/>
</svg>
